<svg xmlns="http://www.w3.org/2000/svg" version="1.1" xmlns:xlink="http://www.w3.org/1999/xlink" xmlns:svgjs="http://svgjs.dev/svgjs" width="1500" height="1500" viewBox="0 0 1500 1500"><rect width="1500" height="1500" fill="#000000"></rect><g transform="matrix(0.6666666666666666,0,0,0.6666666666666666,249.39393939393938,438.5856950067477)"><svg viewBox="0 0 396 247" data-background-color="#ffffff" preserveAspectRatio="xMidYMid meet" height="935" width="1500" xmlns="http://www.w3.org/2000/svg" xmlns:xlink="http://www.w3.org/1999/xlink"><g id="tight-bounds" transform="matrix(1,0,0,1,0.2400000000000091,-0.09999999999999432)"><svg viewBox="0 0 395.52 247.2" height="247.2" width="395.52"><g><svg></svg></g><g><svg viewBox="0 0 395.52 247.2" height="247.2" width="395.52"><g transform="matrix(1,0,0,1,75.54432,73.17346940659635)"><svg viewBox="0 0 244.43135999999998 100.85306118680728" height="100.85306118680728" width="244.43135999999998"><g><svg viewBox="0 0 384.60867514625653 158.69061256093448" height="100.85306118680728" width="244.43135999999998"><g><rect width="5.28027967593803" height="158.69061256093448" x="121.07431380555924" y="0" fill="#ffffff" opacity="1" stroke-width="0" stroke="transparent" fill-opacity="1" class="rect-yte-0" data-fill-palette-color="primary" rx="1%" id="yte-0" data-palette-color="#556970"></rect></g><g transform="matrix(1,0,0,1,140.17731514625652,0.39475276756451194)"><svg viewBox="0 0 244.43136 157.90110702580546" height="157.90110702580546" width="244.43136"><g id="textblocktransform"><svg viewBox="0 0 244.43136 157.90110702580546" height="157.90110702580546" width="244.43136" id="textblock"><g><svg viewBox="0 0 244.43136 124.07447361216731" height="124.07447361216731" width="244.43136"><g transform="matrix(1,0,0,1,0,0)"><svg width="244.43136" viewBox="1.3499999999999999 -38.4 212.6 92.6" height="124.07447361216731" data-palette-color="#556970"><svg></svg><svg></svg><g class="wordmark-text-0" data-fill-palette-color="primary" id="text-0"><path d="M2.4-3.65c-0.7-0.867-1.05-1.527-1.05-1.98 0-0.447 0.393-1.063 1.18-1.85 0.78-0.78 1.297-1.203 1.55-1.27 0.247-0.067 0.487-0.1 0.72-0.1 0.233 0 0.617 0.15 1.15 0.45v0c2.467 1.933 4.633 2.9 6.5 2.9 1.867 0 3.083-0.433 3.65-1.3 0.567-0.867 0.85-2 0.85-3.4 0-1.4-0.5-2.533-1.5-3.4-1-0.867-2.64-1.917-4.92-3.15-2.287-1.233-4.28-2.833-5.98-4.8-1.7-1.967-2.55-4-2.55-6.1v0c0-3.733 0.977-6.46 2.93-8.18 1.947-1.713 4.803-2.57 8.57-2.57v0c2.3 0 4.55 0.55 6.75 1.65v0c1.167 0.467 1.717 0.95 1.65 1.45v0c-0.033 0.2-0.067 0.5-0.1 0.9v0c-0.633 1.8-1.117 2.833-1.45 3.1v0c-0.1 0.067-0.323 0.1-0.67 0.1-0.353 0-1.28-0.273-2.78-0.82-1.5-0.553-2.773-0.83-3.82-0.83-1.053 0-1.93 0.367-2.63 1.1-0.7 0.733-1.05 1.767-1.05 3.1 0 1.333 0.6 2.54 1.8 3.62 1.2 1.087 3.05 2.213 5.55 3.38v0c2.633 1.367 4.61 2.783 5.93 4.25 1.313 1.467 1.97 3.433 1.97 5.9v0c0 8.2-3.467 12.3-10.4 12.3v0c-5.167 0-9.117-1.483-11.85-4.45zM40.7-25.6v0c2.467 0 4.277 1.007 5.43 3.02 1.147 2.02 1.72 5.53 1.72 10.53 0 5-0.723 8.39-2.17 10.17-1.453 1.787-4.197 2.68-8.23 2.68v0h-2.4v10.4c0 0.2-0.017 0.333-0.05 0.4v0c-0.167 0.267-0.8 0.4-1.9 0.4-1.1 0-2.167-0.083-3.2-0.25-1.033-0.167-1.55-0.35-1.55-0.55v0-36c0-0.533 0.783-0.8 2.35-0.8v0c1.567 0 2.5 0.3 2.8 0.9v0l0.95 1.9c2.8-1.867 4.883-2.8 6.25-2.8zM37.45-4c1.233 0 2.077-0.51 2.53-1.53 0.447-1.013 0.67-2.73 0.67-5.15 0-2.413-0.007-4.003-0.02-4.77-0.02-0.767-0.047-1.65-0.08-2.65v0c-0.067-1.8-0.3-2.7-0.7-2.7v0c-1.2 0-2.8 0.6-4.8 1.8v0 15zM55.85-24.7l1 1.9c2.733-1.867 4.54-2.8 5.42-2.8 0.887 0 1.687 0.167 2.4 0.5 0.72 0.333 1.247 0.667 1.58 1v0l0.45 0.45c-0.5 2.133-0.883 3.467-1.15 4-0.267 0.533-0.627 0.8-1.08 0.8-0.447 0-1.02-0.183-1.72-0.55-0.7-0.367-1.333-0.55-1.9-0.55-0.567 0-1.7 0.517-3.4 1.55v0 18.4c0 0.2-0.033 0.333-0.1 0.4v0c-0.133 0.267-0.75 0.4-1.85 0.4-1.1 0-2.127-0.083-3.08-0.25-0.947-0.167-1.42-0.35-1.42-0.55v0-24.8c0-0.533 0.75-0.8 2.25-0.8 1.5 0 2.367 0.267 2.6 0.8v0zM69-12.5v0c0-3.633 0.317-6.383 0.95-8.25 0.633-1.867 1.633-3.143 3-3.83 1.367-0.68 3.383-1.02 6.05-1.02 2.667 0 4.683 0.34 6.05 1.02 1.367 0.687 2.367 1.963 3 3.83 0.633 1.867 0.95 4.617 0.95 8.25v0c0 5-0.717 8.467-2.15 10.4-1.433 1.933-4.05 2.9-7.85 2.9-3.8 0-6.417-0.967-7.85-2.9-1.433-1.933-2.15-5.4-2.15-10.4zM75.8-12.5v0c0 5.6 0.533 8.4 1.6 8.4v0c1.467 0 2.55-0.233 3.25-0.7v0c0.367-0.267 0.617-0.75 0.75-1.45v0c0.267-1.4 0.4-3.483 0.4-6.25v0c0-5.533-0.533-8.3-1.6-8.3v0c-2 0-3.233 0.457-3.7 1.37-0.467 0.92-0.7 3.23-0.7 6.93zM100.1 0.8v0c-2.467 0-4.273-0.767-5.42-2.3-1.153-1.533-1.73-4.233-1.73-8.1v0-15.2c0-0.533 0.61-0.8 1.83-0.8 1.213 0 2.403 0.083 3.57 0.25 1.167 0.167 1.75 0.35 1.75 0.55v0l0.05 15.2c0 3.733 0.267 5.6 0.8 5.6v0c1.2 0 2.8-0.6 4.8-1.8v0-19c0-0.533 0.61-0.8 1.83-0.8 1.213 0 2.413 0.083 3.6 0.25 1.18 0.167 1.77 0.35 1.77 0.55v0 24.8c0 0.2-0.033 0.333-0.1 0.4v0c-0.133 0.267-0.99 0.4-2.57 0.4-1.587 0-2.563-0.267-2.93-0.8v0l-1.05-1.55c-2.333 1.567-4.4 2.35-6.2 2.35zM119.85-4.05v-16.75h-4c-0.4 0-0.623-0.093-0.67-0.28-0.053-0.18-0.08-0.387-0.08-0.62v0c0-1.433 0.25-2.2 0.75-2.3v0l4-0.8 2.8-5.65c0.4-0.5 1.167-0.75 2.3-0.75v0c0.3 0 0.583 0.6 0.85 1.8 0.267 1.2 0.55 2.733 0.85 4.6v0h4.8c0.533 0 0.8 0.667 0.8 2 0 1.333-0.267 2-0.8 2v0h-4.85v15.9l0.8 5.65v0.05c0.033 0.2 0.033 0.333 0 0.4v0c-0.167 0.267-1 0.4-2.5 0.4v0c-1.5 0-2.4-0.3-2.7-0.9v0zM134.4 0v0-24.8c0-0.533 0.6-0.8 1.8-0.8 1.2 0 2.333 0.083 3.4 0.25 1.067 0.167 1.6 0.35 1.6 0.55v0 24.8c0 0.2-0.017 0.333-0.05 0.4v0c-0.167 0.267-0.8 0.4-1.9 0.4-1.1 0-2.183-0.083-3.25-0.25-1.067-0.167-1.6-0.35-1.6-0.55zM137.5-31.2c-2.4 0-3.6-1.2-3.6-3.6 0-2.4 1.2-3.6 3.6-3.6 2.4 0 3.6 1.2 3.6 3.6 0 2.4-1.2 3.6-3.6 3.6zM158.5-25.6v0c2.467 0 4.277 0.767 5.43 2.3 1.147 1.533 1.72 4.233 1.72 8.1v0 15.2c0 0.2-0.017 0.333-0.05 0.4v0c-0.167 0.267-0.807 0.4-1.92 0.4-1.12 0-2.263-0.083-3.43-0.25-1.167-0.167-1.75-0.35-1.75-0.55v0l-0.05-15.2c0-3.733-0.267-5.6-0.8-5.6v0c-1.2 0-2.8 0.6-4.8 1.8v0 19c0 0.2-0.017 0.333-0.05 0.4v0c-0.167 0.267-0.807 0.4-1.92 0.4-1.12 0-2.27-0.083-3.45-0.25-1.187-0.167-1.78-0.35-1.78-0.55v0-24.8c0-0.533 0.667-0.8 2-0.8v0c2.1 0 3.3 0.267 3.6 0.8v0c0 0.067 0.017 0.1 0.05 0.1v0l0.95 1.9c2.8-1.867 4.883-2.8 6.25-2.8zM180.5 2.4v0l-4.25 0.05c-2.067 0-3.307-0.167-3.72-0.5-0.42-0.333-0.63-0.733-0.63-1.2 0-0.467 0.083-0.983 0.25-1.55v0l1.75-5.3c-1.6-0.7-2.75-1.85-3.45-3.45-0.7-1.6-1.05-3.6-1.05-6 0-2.4 0.15-4.217 0.45-5.45 0.3-1.233 0.877-2.2 1.73-2.9 0.847-0.7 1.853-1.16 3.02-1.38 1.167-0.213 2.767-0.32 4.8-0.32v0h10.9c0.533 0 0.8 0.667 0.8 2v0c0 0.667-0.267 1.067-0.8 1.2v0l-0.15 0.05-2.15 0.4c0.933 1.533 1.4 3.517 1.4 5.95v0c0 3.833-0.74 6.59-2.22 8.27-1.487 1.687-4.08 2.53-7.78 2.53v0h-1.1l-0.45 2.35c3.767 0.067 6.217 0.2 7.35 0.4 1.133 0.2 1.917 0.433 2.35 0.7 0.433 0.267 0.843 0.667 1.23 1.2 0.38 0.533 0.613 1.15 0.7 1.85 0.08 0.7 0.12 1.617 0.12 2.75v0c0 2.767-0.767 4.783-2.3 6.05-1.533 1.267-4.267 1.9-8.2 1.9v0c-1.833 0-4.133-0.267-6.9-0.8v0c-0.5-0.1-0.75-0.95-0.75-2.55 0-1.6 0.233-2.4 0.7-2.4v0c0 0 0.017 0 0.05 0v0h0.05c3 0.333 5.393 0.5 7.18 0.5 1.78 0 2.887-0.133 3.32-0.4 0.433-0.267 0.65-0.923 0.65-1.97 0-1.053-0.19-1.647-0.57-1.78-0.387-0.133-1.163-0.2-2.33-0.2zM180.65-20.8c-2.167 0-3.473 0.223-3.92 0.67-0.453 0.453-0.68 1.703-0.68 3.75 0 2.053 0.093 3.537 0.28 4.45 0.18 0.92 0.37 1.453 0.57 1.6 0.2 0.153 0.693 0.23 1.48 0.23 0.78 0 1.413-0.027 1.9-0.08 0.48-0.047 0.92-0.287 1.32-0.72 0.4-0.433 0.627-1 0.68-1.7 0.047-0.7 0.07-1.8 0.07-3.3 0-1.5-0.09-2.627-0.27-3.38-0.187-0.747-0.38-1.187-0.58-1.32-0.2-0.133-0.483-0.2-0.85-0.2zM193.95-12.5v0c0-3.633 0.317-6.383 0.95-8.25 0.633-1.867 1.633-3.143 3-3.83 1.367-0.68 3.383-1.02 6.05-1.02 2.667 0 4.683 0.34 6.05 1.02 1.367 0.687 2.367 1.963 3 3.83 0.633 1.867 0.95 4.617 0.95 8.25v0c0 5-0.717 8.467-2.15 10.4-1.433 1.933-4.05 2.9-7.85 2.9-3.8 0-6.417-0.967-7.85-2.9-1.433-1.933-2.15-5.4-2.15-10.4zM200.75-12.5v0c0 5.6 0.533 8.4 1.6 8.4v0c1.467 0 2.55-0.233 3.25-0.7v0c0.367-0.267 0.617-0.75 0.75-1.45v0c0.267-1.4 0.4-3.483 0.4-6.25v0c0-5.533-0.533-8.3-1.6-8.3v0c-2 0-3.233 0.457-3.7 1.37-0.467 0.92-0.7 3.23-0.7 6.93z" fill="#ffffff" fill-rule="nonzero" stroke="none" stroke-width="1" stroke-linecap="butt" stroke-linejoin="miter" stroke-miterlimit="10" stroke-dasharray="" stroke-dashoffset="0" font-family="none" font-weight="none" font-size="none" text-anchor="none" style="mix-blend-mode: normal" data-fill-palette-color="primary" opacity="1"></path><path transform="translate(0,53.4)" d="M14.9-38.45v0c2.3 0 3.55 0.517 3.75 1.55v0l3.4 15.35 3.45 20.45c0.067 0.333 0.1 0.64 0.1 0.92 0 0.287-0.083 0.523-0.25 0.71-0.167 0.18-0.733 0.27-1.7 0.27v0c-2.967 0-4.55-0.633-4.75-1.9v0l-1.75-10.3h-7l-1.55 10.35c-0.1 0.7-0.227 1.167-0.38 1.4-0.147 0.233-0.353 0.367-0.62 0.4-0.267 0.033-0.7 0.05-1.3 0.05v0h-1.4c-1.167 0-1.9-0.067-2.2-0.2v0c-0.733-0.267-1.15-0.567-1.25-0.9v0c-0.033-0.167-0.05-0.317-0.05-0.45 0-0.133 0.35-2.333 1.05-6.6 0.7-4.267 1.56-9.35 2.58-15.25 1.013-5.9 1.68-9.767 2-11.6 0.313-1.833 0.487-2.867 0.52-3.1v0c0.133-0.767 2.583-1.15 7.35-1.15zM16.05-17.45l-2.65-14.45-2.3 14.45zM34.25 0.8v0c-2.467 0-4.273-1.01-5.42-3.03-1.153-2.013-1.73-5.52-1.73-10.52 0-5 0.727-8.393 2.18-10.18 1.447-1.78 4.187-2.67 8.22-2.67v0h2.4v-12c0-0.533 0.583-0.8 1.75-0.8 1.167 0 2.133 0.073 2.9 0.22 0.767 0.153 1.167 0.347 1.2 0.58v0l0.85 15.95v21.65c0 0.2-0.017 0.333-0.05 0.4v0c-0.167 0.267-0.783 0.4-1.85 0.4-1.067 0-1.973-0.073-2.72-0.22-0.753-0.153-1.13-0.347-1.13-0.58v0l-0.95-1.55c-0.967 0.633-1.65 1.083-2.05 1.35v0c-1.1 0.667-2.3 1-3.6 1zM37.5-20.8c-1.233 0-2.073 0.507-2.52 1.52-0.453 1.02-0.68 2.737-0.68 5.15 0 2.42 0.01 4.013 0.03 4.78 0.013 0.767 0.037 1.65 0.07 2.65v0c0.067 1.8 0.3 2.7 0.7 2.7v0c1.2 0 2.8-0.6 4.8-1.8v0-15zM76.65 0v0-15.2c0-3.733-0.267-5.6-0.8-5.6v0c-1.167 0-2.85 0.65-5.05 1.95v0c0.167 1.233 0.25 2.45 0.25 3.65v0 15.2c0 0.2-0.017 0.333-0.05 0.4v0c-0.167 0.267-0.807 0.4-1.92 0.4-1.12 0-2.27-0.083-3.45-0.25-1.187-0.167-1.78-0.35-1.78-0.55v0-17.05c-0.067-2.5-0.333-3.75-0.8-3.75v0c-1.2 0-2.8 0.6-4.8 1.8v0 19c0 0.2-0.017 0.333-0.05 0.4v0c-0.167 0.267-0.807 0.4-1.92 0.4-1.12 0-2.27-0.083-3.45-0.25-1.187-0.167-1.78-0.35-1.78-0.55v0-24.8c0-0.533 0.667-0.8 2-0.8v0c2.1 0 3.3 0.267 3.6 0.8v0c0 0.067 0.017 0.1 0.05 0.1v0l0.95 1.9c2.8-1.867 4.883-2.8 6.25-2.8v0c2.933 0 4.917 1.067 5.95 3.2v0c3.067-2.133 5.35-3.2 6.85-3.2v0c2.467 0 4.277 0.767 5.43 2.3 1.147 1.533 1.72 4.233 1.72 8.1v0 15.2c0 0.2-0.017 0.333-0.05 0.4v0c-0.167 0.267-0.807 0.4-1.92 0.4-1.12 0-2.27-0.083-3.45-0.25-1.187-0.167-1.78-0.35-1.78-0.55zM88.4 0v0-24.8c0-0.533 0.6-0.8 1.8-0.8 1.2 0 2.333 0.083 3.4 0.25 1.067 0.167 1.6 0.35 1.6 0.55v0 24.8c0 0.2-0.017 0.333-0.05 0.4v0c-0.167 0.267-0.8 0.4-1.9 0.4-1.1 0-2.183-0.083-3.25-0.25-1.067-0.167-1.6-0.35-1.6-0.55zM91.5-31.2c-2.4 0-3.6-1.2-3.6-3.6 0-2.4 1.2-3.6 3.6-3.6 2.4 0 3.6 1.2 3.6 3.6 0 2.4-1.2 3.6-3.6 3.6zM112.5-25.6v0c2.467 0 4.277 0.767 5.43 2.3 1.147 1.533 1.72 4.233 1.72 8.1v0 15.2c0 0.2-0.017 0.333-0.05 0.4v0c-0.167 0.267-0.807 0.4-1.92 0.4-1.12 0-2.263-0.083-3.43-0.25-1.167-0.167-1.75-0.35-1.75-0.55v0l-0.05-15.2c0-3.733-0.267-5.6-0.8-5.6v0c-1.2 0-2.8 0.6-4.8 1.8v0 19c0 0.2-0.017 0.333-0.05 0.4v0c-0.167 0.267-0.807 0.4-1.92 0.4-1.12 0-2.27-0.083-3.45-0.25-1.187-0.167-1.78-0.35-1.78-0.55v0-24.8c0-0.533 0.667-0.8 2-0.8v0c2.1 0 3.3 0.267 3.6 0.8v0c0 0.067 0.017 0.1 0.05 0.1v0l0.95 1.9c2.8-1.867 4.883-2.8 6.25-2.8z" fill="#ffffff" fill-rule="nonzero" stroke="none" stroke-width="1" stroke-linecap="butt" stroke-linejoin="miter" stroke-miterlimit="10" stroke-dasharray="" stroke-dashoffset="0" font-family="none" font-weight="none" font-size="none" text-anchor="none" style="mix-blend-mode: normal" data-fill-palette-color="accent" opacity="1"></path></g></svg></g></svg></g><g transform="matrix(1,0,0,1,0,137.89719527692654)"><svg viewBox="0 0 169.51314816 20.00391174887892" height="20.00391174887892" width="169.51314816"><g transform="matrix(1,0,0,1,0,0)"><svg width="169.51314816" viewBox="0.3 -37.5 423.65999999999997 50" height="20.00391174887892" data-palette-color="#556970"><path d="M13.05-34.2L19.85-18.55 26.95-34.2 21.9-34.2 21.9-35 31.75-35 31.75-34.2 28.45-34.2 20.9-17.5 20.9-0.95 23.95-0.95 23.95 0 8.1 0 8.1-0.95 11.15-0.95 11.15-16.55 2.65-34.2 0.3-34.2 0.3-35 16.3-35 16.3-34.2 13.05-34.2ZM43.95-9.85L43.95-9.85 43.95-14.1Q43.95-18.95 43.42-21.18 42.9-23.4 41-23.4L41-23.4Q39.9-23.4 39.22-22.78 38.55-22.15 38.25-20.7L38.25-20.7Q37.8-18.45 37.8-13.85L37.8-13.85 37.8-9.95Q37.8-4.5 38.12-3.4 38.45-2.3 38.8-1.6L38.8-1.6Q39.35-0.4 40.95-0.4L40.95-0.4Q42.9-0.4 43.5-2.65L43.5-2.65Q43.95-4.25 43.95-9.85ZM40.85 0.5Q34.6 0.5 31.4-2.7 28.2-5.9 28.2-11.88 28.2-17.85 31.62-21.08 35.05-24.3 41.25-24.3 47.45-24.3 50.5-21.33 53.55-18.35 53.55-12.25L53.55-12.25Q53.55 0.5 40.85 0.5L40.85 0.5ZM84.2-0.9L84.2 0 72.8 0 72.25-3.65Q71.45-1.65 69.87-0.58 68.3 0.5 65.2 0.5L65.2 0.5Q57.45 0.5 57.45-7.85L57.45-7.85 57.45-22.9 54.65-22.9 54.65-23.8 66.75-23.8 66.75-6.65Q66.75-3.65 67.17-2.7 67.6-1.75 68.87-1.75 70.15-1.75 71.15-3.3 72.15-4.85 72.15-7.6L72.15-7.6 72.15-22.9 69.85-22.9 69.85-23.8 81.45-23.8 81.45-0.9 84.2-0.9ZM101.89-22.4L101.89-22.4Q100.04-22.4 98.64-20 97.24-17.6 97.24-14.3L97.24-14.3 97.24-0.9 100.79-0.9 100.79 0 85.19 0 85.19-0.9 87.94-0.9 87.94-22.9 85.19-22.9 85.19-23.8 97.24-23.8 97.24-19Q97.89-21.55 99.74-22.93 101.59-24.3 103.94-24.3 106.29-24.3 107.77-22.98 109.24-21.65 109.24-19.23 109.24-16.8 108.14-15.5 107.04-14.2 104.77-14.2 102.49-14.2 101.42-15.7 100.34-17.2 101.14-19.85L101.14-19.85 102.94-19.85Q104.19-22.4 101.89-22.4ZM137.89-22.9L136.04-22.9 136.04-23.8 148.94-23.8 148.94-22.9 146.89-22.9 151.39-6.05 155.84-22.9 152.39-22.9 152.39-23.8 159.14-23.8 159.14-22.9 157.04-22.9 151.04 0 144.19 0 139.84-15.35 135.14 0 128.44 0 121.04-22.9 118.79-22.9 118.79-23.8 133.94-23.8 133.94-22.9 130.94-22.9 135.54-5.9 139.14-17.6 137.89-22.9ZM170.49-11.75L170.49-11.75 171.94-11.75 171.94-15.6Q171.94-20.35 171.41-21.98 170.89-23.6 169.39-23.6L169.39-23.6Q168.49-23.6 167.76-23.13 167.04-22.65 167.04-21.83 167.04-21 167.34-20.15L167.34-20.15 168.59-20.15Q168.99-19.1 168.99-17.63 168.99-16.15 167.74-15.08 166.49-14 164.59-14L164.59-14Q160.29-14 160.29-18.15L160.29-18.15Q160.29-24.3 170.74-24.3L170.74-24.3Q176.69-24.3 178.96-22.28 181.24-20.25 181.24-14.85L181.24-14.85 181.24-4.7Q181.24-2.1 182.69-2.1L182.69-2.1Q184.39-2.1 184.69-7.25L184.69-7.25 185.44-7.2Q185.24-2.8 183.79-1.15 182.34 0.5 179.04 0.5L179.04 0.5Q173.04 0.5 172.14-3.2L172.14-3.2Q171.49-1.3 170.19-0.4 168.89 0.5 166.39 0.5L166.39 0.5Q158.99 0.5 158.99-5.55L158.99-5.55Q158.99-9.1 161.81-10.43 164.64-11.75 170.49-11.75ZM168.49-5.6Q168.49-3 168.76-2.25 169.04-1.5 169.81-1.5 170.59-1.5 171.26-2.78 171.94-4.05 171.94-6.3L171.94-6.3 171.94-10.95 171.59-10.95Q168.49-10.95 168.49-6.4L168.49-6.4 168.49-5.6ZM184.73-22.9L182.68-22.9 182.68-23.8 197.18-23.8 197.18-22.9 194.48-22.9 199.93-6.3 205.73-22.9 202.38-22.9 202.38-23.8 209.43-23.8 209.43-22.9 206.93-22.9 197.58 4.05Q195.93 8.75 193.88 10.63 191.83 12.5 188.88 12.5 185.93 12.5 184.23 11.15 182.53 9.8 182.53 7.7 182.53 5.6 183.63 4.5 184.73 3.4 186.53 3.4L186.53 3.4Q190.68 3.4 190.68 6.85L190.68 6.85Q190.68 7.6 190.38 8.65L190.38 8.65 188.63 8.65Q188.23 9.8 188.53 10.55 188.83 11.3 189.88 11.3L189.88 11.3Q191.93 11.3 193.53 9.28 195.13 7.25 196.58 3.1L196.58 3.1 197.68 0 193.28 0 184.73-22.9ZM221.03-7.15L221.03-7.15 221.03-22.9 218.28-22.9 218.28-23.8 221.03-23.8 221.03-30.25 230.33-32.55 230.33-23.8 236.83-23.8 236.83-22.9 230.33-22.9 230.33-6.05Q230.33-3.7 230.8-2.6 231.28-1.5 232.78-1.5 234.28-1.5 235.4-3 236.53-4.5 236.88-7.1L236.88-7.1 237.73-7Q237.33-3.55 235.53-1.53 233.73 0.5 229.58 0.5 225.43 0.5 223.23-1.15 221.03-2.8 221.03-7.15ZM254.38-9.85L254.38-9.85 254.38-14.1Q254.38-18.95 253.85-21.18 253.33-23.4 251.43-23.4L251.43-23.4Q250.33-23.4 249.65-22.78 248.98-22.15 248.68-20.7L248.68-20.7Q248.23-18.45 248.23-13.85L248.23-13.85 248.23-9.95Q248.23-4.5 248.55-3.4 248.88-2.3 249.23-1.6L249.23-1.6Q249.78-0.4 251.38-0.4L251.38-0.4Q253.33-0.4 253.93-2.65L253.93-2.65Q254.38-4.25 254.38-9.85ZM251.28 0.5Q245.03 0.5 241.83-2.7 238.63-5.9 238.63-11.88 238.63-17.85 242.05-21.08 245.48-24.3 251.68-24.3 257.88-24.3 260.93-21.33 263.98-18.35 263.98-12.25L263.98-12.25Q263.98 0.5 251.28 0.5L251.28 0.5ZM274.37-36.6L274.37-37.5 286.42-37.5 286.42-19.2Q287.22-21.5 288.87-22.9 290.52-24.3 293.87-24.3L293.87-24.3Q301.62-24.3 301.62-15.95L301.62-15.95 301.62-0.9 304.42-0.9 304.42 0 290.27 0 290.27-0.9 292.32-0.9 292.32-17.15Q292.32-20.15 291.92-21.03 291.52-21.9 290.47-21.9L290.47-21.9Q288.87-21.9 287.64-19.8 286.42-17.7 286.42-14.7L286.42-14.7 286.42-0.9 288.57-0.9 288.57 0 274.37 0 274.37-0.9 277.12-0.9 277.12-36.6 274.37-36.6ZM318.32 0.5Q311.87 0.5 308.64-2.83 305.42-6.15 305.42-12.08 305.42-18 309.04-21.15 312.67-24.3 318.27-24.3L318.27-24.3Q329.62-24.3 329.17-12.9L329.17-12.9 315.07-12.9 315.07-10.95Q315.07-6.05 316.32-3.55 317.57-1.05 320.67-1.05L320.67-1.05Q326.47-1.05 328.27-7.25L328.27-7.25 329.17-7.1Q328.22-3.5 325.74-1.5 323.27 0.5 318.32 0.5L318.32 0.5ZM315.12-16.35L315.12-13.9 320.27-13.9 320.27-16.35Q320.27-20.4 319.79-21.88 319.32-23.35 317.89-23.35 316.47-23.35 315.79-21.78 315.12-20.2 315.12-16.35L315.12-16.35ZM342.97-11.75L342.97-11.75 344.42-11.75 344.42-15.6Q344.42-20.35 343.89-21.98 343.37-23.6 341.87-23.6L341.87-23.6Q340.97-23.6 340.24-23.13 339.52-22.65 339.52-21.83 339.52-21 339.82-20.15L339.82-20.15 341.07-20.15Q341.47-19.1 341.47-17.63 341.47-16.15 340.22-15.08 338.97-14 337.07-14L337.07-14Q332.77-14 332.77-18.15L332.77-18.15Q332.77-24.3 343.22-24.3L343.22-24.3Q349.17-24.3 351.44-22.28 353.72-20.25 353.72-14.85L353.72-14.85 353.72-4.7Q353.72-2.1 355.17-2.1L355.17-2.1Q356.87-2.1 357.17-7.25L357.17-7.25 357.92-7.2Q357.72-2.8 356.27-1.15 354.82 0.5 351.52 0.5L351.52 0.5Q345.52 0.5 344.62-3.2L344.62-3.2Q343.97-1.3 342.67-0.4 341.37 0.5 338.87 0.5L338.87 0.5Q331.47 0.5 331.47-5.55L331.47-5.55Q331.47-9.1 334.29-10.43 337.12-11.75 342.97-11.75ZM340.97-5.6Q340.97-3 341.24-2.25 341.52-1.5 342.29-1.5 343.07-1.5 343.74-2.78 344.42-4.05 344.42-6.3L344.42-6.3 344.42-10.95 344.07-10.95Q340.97-10.95 340.97-6.4L340.97-6.4 340.97-5.6ZM358.21-36.6L358.21-37.5 370.46-37.5 370.46-0.9 373.26-0.9 373.26 0 358.41 0 358.41-0.9 361.16-0.9 361.16-36.6 358.21-36.6ZM376.71-7.15L376.71-7.15 376.71-22.9 373.96-22.9 373.96-23.8 376.71-23.8 376.71-30.25 386.01-32.55 386.01-23.8 392.51-23.8 392.51-22.9 386.01-22.9 386.01-6.05Q386.01-3.7 386.49-2.6 386.96-1.5 388.46-1.5 389.96-1.5 391.09-3 392.21-4.5 392.56-7.1L392.56-7.1 393.41-7Q393.01-3.55 391.21-1.53 389.41 0.5 385.26 0.5 381.11 0.5 378.91-1.15 376.71-2.8 376.71-7.15ZM393.91-36.6L393.91-37.5 405.96-37.5 405.96-19.2Q406.76-21.5 408.41-22.9 410.06-24.3 413.41-24.3L413.41-24.3Q421.16-24.3 421.16-15.95L421.16-15.95 421.16-0.9 423.96-0.9 423.96 0 409.81 0 409.81-0.9 411.86-0.9 411.86-17.15Q411.86-20.15 411.46-21.03 411.06-21.9 410.01-21.9L410.01-21.9Q408.41-21.9 407.18-19.8 405.96-17.7 405.96-14.7L405.96-14.7 405.96-0.9 408.11-0.9 408.11 0 393.91 0 393.91-0.9 396.66-0.9 396.66-36.6 393.91-36.6Z" opacity="1" transform="matrix(1,0,0,1,0,0)" fill="#ffffff" class="slogan-text-1" data-fill-palette-color="secondary" id="text-1"></path></svg></g></svg></g></svg></g></svg></g><g transform="matrix(1,0,0,1,0,25.812334738659146)"><svg viewBox="0 0 107.2515921408 107.06594308361619" height="107.06594308361619" width="107.2515921408"><g><svg xmlns="http://www.w3.org/2000/svg" xmlns:xlink="http://www.w3.org/1999/xlink" viewBox="7.763 7.85 84.44612205988678 84.29994853807402" version="1.1" xml:space="preserve" x="0" y="0" height="107.06594308361619" width="107.2515921408" class="icon-icon-0" data-fill-palette-color="accent" id="icon-0"><g fill="#67675c" data-fill-palette-color="accent"><path d="M60.786 22.534C64.851 23.087 67.611 22.577 70.91 19.59 74.124 16.269 75.289 12.3 74.585 7.85 68.47 9.614 60.675 12.226 60.383 21.483 61.253 20.239 64.127 16.423 67.353 15.32 64.306 16.79 61.601 20.866 60.786 22.534M55.676 28.756C54.262 26.61 46.444 23.135 43.704 21.86 43.682 21.853 43.675 21.85 43.685 21.85L43.704 21.86C44.2 22.017 52.218 24.094 55.763 27.492 52.918 17.34 39.048 14.065 31.523 15.682 31.81 21.89 36.217 27.266 40.207 30.017 43.854 32.531 51.601 32.228 55.675 28.757M53.287 50.264S54.197 50.693 54.723 50.77C55.197 50.453 56.153 49.8 56.363 49.13 54.073 44.66 55.075 39.88 57.285 34.434 60.563 26.354 60.675 20.588 58.82 17.034 58.211 15.863 57.491 16.253 57.841 17.239 62.075 29.14 47.943 38.997 53.288 50.264M37.043 60.65C37.147 60.686 38.578 61.13 40.67 61.776L48.302 64.124 55.836 66.428C57.588 66.96 58.842 67.338 59.183 67.43 60.655 67.831 62.547 69.183 63.34 71.066 63.377 71.153 76.462 63.8 76.462 63.8L76.882 62.09S73.037 59.386 72.143 59.03 70.855 59.205 70.463 57.77C70.073 56.336 70.49 56.295 69.563 55.37 68.637 54.445 67.763 55.19 67.763 55.19S67.583 53.568 67.043 52.85C66.506 52.132 66.309 52.66 65.063 52.31S64.127 52.114 63.383 51.95 62.309 50.84 60.863 50.27 58.283 50.45 58.283 50.45 55.946 53.386 55.223 53.21C54.503 53.034 50.673 50.84 50.303 50.87 49.935 50.9 49.223 52.13 49.223 52.13L47.963 53.57 44.663 53.39 42.503 55.55S41.218 55.023 37.043 60.65M58.418 69.364C58.45 69.372 31.283 61.039 31.283 61.039 26.149 59.689 21.115 62.71 21.115 62.71S10.436 68.508 10.147 68.677C8.021 69.919 7.773 71.19 7.773 74.545L7.763 86.576C7.763 90.06 9.483 90.823 12.14 89.68L18.79 86.322C22.156 84.4 25.86 85.462 25.86 85.462L50.08 91.892C53.527 92.805 56.689 91.001 56.689 91.001L88.898 72.634C88.79 72.696 94.219 69.492 91.393 64.727 88.235 59.403 82.78 62.3 82.78 62.3L63.785 72.977C64.073 75.613 62.955 78.24 61.01 79.523 58.687 81.056 55.728 80.38 54.954 80.176 48.209 78.53 41.412 76.599 34.638 74.877 34.252 74.775 33.785 74.72 33.493 74.78 32.233 74.855 30.848 75.646 29.857 75.997 29.37 76.276 28.958 75.759 28.865 75.597 28.299 74.633 29.499 74.269 29.744 74.13 31.128 73.338 32.222 72.606 34.266 72.94 41.61 74.335 49.076 76.851 56.501 78.538 62.338 80.078 64.134 70.868 58.418 69.364" fill="#ffffff" data-fill-palette-color="accent"></path></g></svg></g></svg></g></svg></g></svg></g><g><path d="M0 123.6c0-68.262 55.338-123.6 123.6-123.6 48.575 0 90.606 28.021 110.809 68.781l-1.876 0c-20.07-39.803-61.313-67.103-108.933-67.103-67.336 0-121.922 54.586-121.922 121.922 0 67.336 54.586 121.922 121.922 121.922 47.62 0 88.863-27.3 108.933-67.103h1.876c-20.203 40.76-62.234 68.781-110.809 68.781-68.262 0-123.6-55.338-123.6-123.6z" fill="#ffffff" stroke="transparent" data-fill-palette-color="tertiary"></path></g></svg></g><defs></defs></svg><rect width="395.52" height="247.2" fill="none" stroke="none" visibility="hidden"></rect></g></svg></g></svg>