<?xml version="1.0" encoding="UTF-8"?>
<svg xmlns="http://www.w3.org/2000/svg" xmlns:xlink="http://www.w3.org/1999/xlink" viewBox="0 0 1080 1080">
  <defs>
    <style>
      .cls-1 {
        fill: url(#linear-gradient);
      }

      .cls-1, .cls-2, .cls-3, .cls-4, .cls-5, .cls-6, .cls-7, .cls-8 {
        stroke-width: 0px;
      }

      .cls-2 {
        fill: url(#linear-gradient-5);
      }

      .cls-9 {
        fill: url(#linear-gradient-2);
        stroke: #90a533;
        stroke-miterlimit: 10;
        stroke-width: .93px;
      }

      .cls-10 {
        fill: #009444;
        font-family: Montserrat-SemiBold, Montserrat;
        font-size: 41.82px;
        font-weight: 600;
      }

      .cls-3 {
        fill: #fff;
      }

      .cls-4 {
        fill: #e06f29;
      }

      .cls-5 {
        fill: url(#linear-gradient-3);
      }

      .cls-6 {
        fill: #d1d3d4;
      }

      .cls-7 {
        fill: #006838;
      }

      .cls-8 {
        fill: url(#linear-gradient-4);
      }
    </style>
    <linearGradient id="linear-gradient" x1="778.69" y1="463.87" x2="822.17" y2="463.87" gradientTransform="translate(145.6 -190.24) rotate(14.95)" gradientUnits="userSpaceOnUse">
      <stop offset="0" stop-color="#d8ca2a"/>
      <stop offset="1" stop-color="#3c7a3e"/>
    </linearGradient>
    <linearGradient id="linear-gradient-2" x1="469.47" y1="433.25" x2="536.96" y2="433.25" gradientTransform="matrix(1,0,0,1,0,0)" xlink:href="#linear-gradient"/>
    <linearGradient id="linear-gradient-3" x1="392.03" y1="516.49" x2="511.49" y2="516.49" gradientTransform="matrix(1,0,0,1,0,0)" xlink:href="#linear-gradient"/>
    <linearGradient id="linear-gradient-4" x1="412.59" y1="530.51" x2="490.93" y2="530.51" gradientTransform="matrix(1,0,0,1,0,0)" xlink:href="#linear-gradient"/>
    <linearGradient id="linear-gradient-5" x1="397.62" y1="435.6" x2="452.85" y2="435.6" gradientTransform="matrix(1,0,0,1,0,0)" xlink:href="#linear-gradient"/>
  </defs>
  <g id="Layer_1" data-name="Layer 1">
    <g>
      <path class="cls-1" d="m816.23,481.31s13.6-21.58-12.77-28.74c0,0-13.1-3.41-24.25,2.59,0,0,2.88,21.9,37.02,26.15Z"/>
      <path class="cls-3" d="m798.32,458.65s14.2,1.35,18.31,21.2"/>
      <g>
        <path class="cls-4" d="m850.85,557.72c-1.95-8.27-7.14-13.12-15.23-15.15-5.17-1.29-10.43-1.05-15.69-1.15-8.15-.16-16.3,1.84-24.46.07-2.49-.54-5.4-.84-5.03-4.21.4-3.56,3.2-3.58,6.04-3.02,8.46,1.64,16.86,1.42,25.14-1.06,12.65-3.79,20.2-13.25,20.34-25.45.15-12.74-6.94-22.31-19.61-26.46-9.19-3-18.45-2.9-27.61-.1-19.26,5.89-26.57,26.02-15.02,41.81,2.7,3.7,1.67,4.87-1.75,6.71-7.55,4.06-10.65,12.2-7.77,20.22,2.35,6.53,7.78,9.56,14.17,11.16,7.6,1.89,15.37,1.55,23.11,1.65,5.26,0,10.52-.13,15.77.05,2.6.09,5.03,1.11,5.36,4.17.35,3.38-2.36,4.41-5.06,5.2-.73.21-1.94.44-2.7.51-14,1.35-27.88,2-40.07-7.11-2.04-1.53-3.58-1.26-5.03,1.98-1.49,3.35-3.43,6.49-5.92,9.18-3.44,3.72-2.89,6.51.31,8.75,2.77,1.94,5.75,3.49,8.97,4.52,16.07,5.15,32.54,5.83,48.94,2.81,17.86-3.29,26.85-17.89,22.8-35.08Zm-43.09-64.44c8.87,0,14.86,5.75,14.87,14.28.01,8.31-5.43,13.66-13.8,13.58-9-.09-15.21-5.85-15.15-14.07.06-8.64,5.31-13.78,14.08-13.79Z"/>
        <path class="cls-4" d="m902.14,457.03c-30.61-.06-52.4,20.55-52.42,49.56,0,28.94,21.04,49.68,50.49,49.73,30.08.06,52.69-21.31,52.31-50.52-.33-24.96-18.53-49.67-50.38-48.77Zm-.98,75.19c-15.05,0-27.25-11.4-27.25-25.46s12.2-25.45,27.25-25.45,27.26,11.39,27.26,25.45-12.2,25.46-27.26,25.46Z"/>
      </g>
      <g>
        <path class="cls-7" d="m589.91,485.18v69.79h-23.02v-9.85c-4.05,6.75-10.99,11.88-22.5,11.88-14.13,0-23.02-10.67-23.02-24.3v-47.07l24.46-.44v41.71c0,6.48,3.14,10.26,9.29,10.26s10.46-5.8,10.46-13.5v-37.95l24.33-.53Z"/>
        <path class="cls-7" d="m672.58,457.05h0c4.68,4.32,4.66,11.71-.04,16h0c-4.16,3.81-10.55,3.79-14.7-.03h0c-4.65-4.29-4.67-11.63-.04-15.94h0c4.16-3.87,10.6-3.88,14.77-.03Zm-19.56,28.14l24.33-.27v70.06s-24.33,0-24.33,0v-69.79Z"/>
        <path class="cls-7" d="m758.87,510.02v44.95h-24.33v-40.5c0-6.21-3.53-9.85-9.68-9.85s-10.73,5.4-10.73,13.09v37.26h-24.33v-69.43s23.15-.36,23.15-.36v11.34c3.92-6.35,11.12-11.75,22.5-11.75,14.52,0,23.42,10.26,23.42,25.24Z"/>
      </g>
      <path class="cls-7" d="m608.74,462.9h24.41v91.33c0,.1-.08.17-.17.17h-24.23v-91.5h0Z"/>
      <rect class="cls-7" x="610.78" y="474.32" width="20.33" height="48.33" transform="translate(1119.42 -122.46) rotate(90)"/>
      <g>
        <path class="cls-7" d="m171.59,554.59l-.11-25.14c0-.07.06-.11.13-.09,12.97,4.37,26.07,7.04,35.99,7.04s13.94-2.41,13.94-7.37-3.19-7.37-17.79-11.05c-21.78-5.67-32-13.89-32-31.46s11.95-28.62,37.58-28.62c11.55,0,28.71,1.42,38.28,3.4l-.34,25.41c-10.49-3.68-26.78-8.41-37.67-8.41-7.44,0-12.08,1.98-12.08,6.52s2.79,7.08,17.26,10.91c22.71,5.95,32.4,14.03,32.4,31.31s-13.41,29.9-37.98,29.9c-15.4-.14-29.51-.66-37.61-2.36Z"/>
        <path class="cls-7" d="m281.57,493.04c4.38-6.94,11.42-12.33,22.97-12.33,12.48,0,26.16,12.04,26.16,36.13s-13.55,39.67-29.88,39.67c-9.56,0-14.74-4.53-18.06-7.65v35.14h-24.7v-102.36s23.5-.51,23.5-.51v11.9Zm12.22,43.5c5.71,0,11.55-5.53,11.55-17.71s-4.78-17.29-11.55-17.29-11.42,6.09-11.42,16.29v13.74c2.26,1.98,5.98,4.96,11.42,4.96Z"/>
        <path class="cls-7" d="m388.72,481l-.25,24.11-9.71-.02c-7.04,0-14.21,4.25-14.21,17.29v32.02h-24.7v-73.02l22.84-.24v18.56c3.05-12.04,9.69-18.99,23.37-18.99.66,0,1.86.14,2.66.28Z"/>
      </g>
      <g>
        <path class="cls-9" d="m470.75,454.48s-10.96-42.37,31.29-43.41c0,0,20.92-.27,34.92,14.63,0,0-13.67,35.96-66.21,28.78Z"/>
        <path class="cls-3" d="m470.65,453.6s8.31-30.75,45.77-29.74c0,0-21.31-.8-45.77,29.74h0Z"/>
        <path class="cls-5" d="m436.38,480.9c-1.68.8-3.37,1.55-5.01,2.35-1.58.95-3.2,1.79-4.72,2.8l-2.24,1.57c-.74.53-1.51,1.01-2.18,1.63l-2.07,1.76-1.03.87-.95.97c-5.13,5.04-9.29,10.96-12.09,17.42-2.87,6.42-4.5,13.33-4.7,20.24-.19,6.91.97,13.77,3.37,20.17,1.21,3.19,2.66,6.27,4.45,9.13,1.8,2.86,3.84,5.55,6.13,8,4.6,4.89,10.18,8.8,16.27,11.48,6.12,2.6,12.72,4.04,19.31,3.95,6.58-.1,13.14-1.51,19.08-4.39,2.98-1.4,5.86-3.07,8.51-5.1,2.69-1.99,5.22-4.26,7.54-6.69,4.63-4.88,8.33-10.61,10.9-16.8,2.59-6.19,3.95-12.9,4.02-19.63.05-6.73-1.22-13.49-3.79-19.79-1.29-3.14-2.86-6.19-4.74-9.06-1.89-2.87-4.08-5.53-6.46-8.09-4.83-5.11-10.69-9.66-16.16-14.91-2.72-2.64-5.32-5.5-7.6-8.64-2.28-3.23-4.03-6.81-4.97-10.61-.9-3.79-1.16-7.79-.15-11.56.93-3.77,3.29-7.07,6.28-9.23-2.57,2.67-4.31,6.02-4.62,9.56-.47,3.51.22,7.06,1.44,10.31,1.29,3.25,3.12,6.26,5.4,8.84,2.35,2.62,5,4.99,7.84,7.22,5.61,4.53,11.82,8.6,17.62,13.77,5.82,5.2,10.76,11.63,14.15,18.86,3.42,7.21,5.35,15.17,5.6,23.21.3,8.04-1.14,16.14-4.01,23.67-2.88,7.54-7.26,14.47-12.68,20.42-2.75,2.95-5.72,5.64-8.95,8.07-3.21,2.47-6.73,4.58-10.43,6.32-7.39,3.51-15.62,5.28-23.8,5.3-8.19-.06-16.32-1.92-23.69-5.33-7.33-3.49-13.97-8.41-19.22-14.55-2.62-3.06-4.95-6.37-6.9-9.87-1.94-3.51-3.46-7.23-4.67-11.02-.28-.96-.58-1.9-.83-2.86l-.65-2.9c-.39-1.94-.59-3.93-.89-5.89-.19-1.97-.21-3.96-.31-5.93.06-1.98.2-3.95.33-5.91.88-7.83,3.32-15.42,7.1-22.18,3.84-6.73,8.91-12.69,14.96-17.3l1.12-.88,1.19-.78,2.38-1.55c.77-.55,1.63-.95,2.46-1.4l2.5-1.31c1.7-.8,3.48-1.42,5.2-2.13,1.78-.57,3.58-1.05,5.36-1.55Z"/>
        <path class="cls-8" d="m465.21,502.9c-7.09-1.07-14-3.24-20.43-6.41-.94-.46-1.9-.97-2.61-1.74s-1.14-1.89-.85-2.9c.52-1.79,2.8-2.28,4.65-2.26,2.77.03,5.53.52,8.15,1.43,3.15,1.1,5.96,2.98,9.09,3.98,2.93.94,5.65,1.9,8.35,3.48,5.34,3.13,9.93,7.53,13.25,12.76,2.51,3.95,4.36,8.43,5.34,13.3,4.27,21.2-9.46,41.84-30.66,46.12-21.2,4.26-41.84-9.47-46.12-30.67-2.16-10.72.29-21.29,5.97-29.68,5.55-8.21,14.21-14.32,24.7-16.43,6.52-1.31,12.98-.93,18.94.86"/>
        <path class="cls-2" d="m451.63,450.7s9.62-30.94-25.1-31.09c0,0-17.19.1-28.91,11.13,0,0,10.72,25.93,54.01,19.96Z"/>
        <path class="cls-3" d="m422.22,428.77s17.87-3,29.43,20.02c0,0-6.47-13.16-29.43-20.02h0Z"/>
      </g>
      <path class="cls-6" d="m454.49,502.8c3.88,3.82,5.97,8.25,5.68,12.06,2.47-2.41,2.19-6.32-.28-9.9-2.47-3.58-6.96-6.8-11.89-8.91-1.95-.84-4.46-1.7-6.37-1.58.4,1.06,5,2.66,6.46,3.51,2.41,1.41,4.6,3.05,6.41,4.83Z"/>
    </g>
  </g>
  <g id="Layer_3" data-name="Layer 3">
    <text class="cls-10" transform="translate(345.65 638.63)"><tspan x="0" y="0">Your Way To Health!</tspan></text>
  </g>
</svg>